<svg width="820" height="860" viewBox="0 0 820 860" xmlns="http://www.w3.org/2000/svg">
  <defs>
    <linearGradient id="bgGrad" x1="0%" y1="0%" x2="100%" y2="100%">
      <stop offset="0%" stop-color="#080b14"/>
      <stop offset="55%" stop-color="#0d1424"/>
      <stop offset="100%" stop-color="#111a30"/>
    </linearGradient>
    <linearGradient id="titleGrad" x1="0%" y1="0%" x2="100%" y2="0%">
      <stop offset="0%" stop-color="#39e5ff"/>
      <stop offset="100%" stop-color="#8f7cff"/>
    </linearGradient>
    <linearGradient id="pillGrad" x1="0%" y1="0%" x2="100%" y2="0%">
      <stop offset="0%" stop-color="#15203a"/>
      <stop offset="100%" stop-color="#182746"/>
    </linearGradient>
    <radialGradient id="nodeGlow" cx="50%" cy="50%" r="50%">
      <stop offset="0%" stop-color="#5fd6ff" stop-opacity="0.85"/>
      <stop offset="100%" stop-color="#5fd6ff" stop-opacity="0"/>
    </radialGradient>
    <pattern id="dots" width="26" height="26" patternUnits="userSpaceOnUse">
      <circle cx="1.2" cy="1.2" r="1.2" fill="#2a3a5c" opacity="0.32"/>
    </pattern>
    <clipPath id="frame"><rect x="0" y="0" width="820" height="860" rx="18"/></clipPath>
    <clipPath id="marqueeClip"><rect x="30" y="802" width="760" height="28"/></clipPath>
  </defs>

  <g clip-path="url(#frame)">
    <rect width="820" height="860" fill="url(#bgGrad)"/>
    <rect width="820" height="860" fill="url(#dots)"/>
    <rect x="0" y="0" width="820" height="860" fill="none" stroke="#233255" stroke-width="1.5" rx="18"/>

    <circle cx="782" cy="34" r="4" fill="#39ff9d">
      <animate attributeName="opacity" values="1;0.25;1" dur="1.3s" repeatCount="indefinite"/>
    </circle>
    <text x="770" y="38" text-anchor="end" font-family="SFMono-Regular, Consolas, Menlo, monospace" font-size="10.5" letter-spacing="1.6" fill="#8fe6b8">AGENT LIVE</text>

    <!-- identity -->
    <text x="410" y="112" text-anchor="middle" font-family="Segoe UI, ui-sans-serif, system-ui, sans-serif" font-size="36" font-weight="700" fill="#eef3ff">Sakthi Prasanth</text>
    <text x="410" y="145" text-anchor="middle" font-family="Segoe UI, ui-sans-serif, system-ui, sans-serif" font-size="15.5" font-weight="700" letter-spacing="4" fill="url(#titleGrad)">AI ENGINEER</text>
    <text x="410" y="174" text-anchor="middle" font-family="Segoe UI, ui-sans-serif, system-ui, sans-serif" font-size="13.5" fill="#9db0d6">Building LLM &amp; agentic systems that reason, retrieve &amp; act.</text>

    <line x1="60" y1="205" x2="760" y2="205" stroke="#233255"/>

    <!-- ============ SNAKE PIPELINE FLOW ============ -->
    <line x1="178.0" y1="300.0" x2="372.0" y2="300.0" stroke="#233255" stroke-width="2"/>
<line x1="448.0" y1="300.0" x2="642.0" y2="300.0" stroke="#233255" stroke-width="2"/>
<line x1="680.0" y1="338.0" x2="680.0" y2="452.0" stroke="#233255" stroke-width="2"/>
<line x1="642.0" y1="490.0" x2="472.0" y2="490.0" stroke="#233255" stroke-width="2"/>
<line x1="348.0" y1="490.0" x2="178.0" y2="490.0" stroke="#233255" stroke-width="2"/>
<line x1="140.0" y1="528.0" x2="140.0" y2="642.0" stroke="#233255" stroke-width="2"/>
<line x1="178.0" y1="680.0" x2="372.0" y2="680.0" stroke="#233255" stroke-width="2"/>
<line x1="448.0" y1="680.0" x2="642.0" y2="680.0" stroke="#233255" stroke-width="2"/>
    <text x="275.0" y="300.0" font-family="Segoe UI, sans-serif" font-size="14" fill="#3a4d78" text-anchor="middle" dominant-baseline="middle" transform="rotate(0.0 275.0 300.0)">&#8250;</text>
<text x="545.0" y="300.0" font-family="Segoe UI, sans-serif" font-size="14" fill="#3a4d78" text-anchor="middle" dominant-baseline="middle" transform="rotate(0.0 545.0 300.0)">&#8250;</text>
<text x="680.0" y="395.0" font-family="Segoe UI, sans-serif" font-size="14" fill="#3a4d78" text-anchor="middle" dominant-baseline="middle" transform="rotate(90.0 680.0 395.0)">&#8250;</text>
<text x="557.0" y="490.0" font-family="Segoe UI, sans-serif" font-size="14" fill="#3a4d78" text-anchor="middle" dominant-baseline="middle" transform="rotate(180.0 557.0 490.0)">&#8250;</text>
<text x="263.0" y="490.0" font-family="Segoe UI, sans-serif" font-size="14" fill="#3a4d78" text-anchor="middle" dominant-baseline="middle" transform="rotate(180.0 263.0 490.0)">&#8250;</text>
<text x="140.0" y="585.0" font-family="Segoe UI, sans-serif" font-size="14" fill="#3a4d78" text-anchor="middle" dominant-baseline="middle" transform="rotate(90.0 140.0 585.0)">&#8250;</text>
<text x="275.0" y="680.0" font-family="Segoe UI, sans-serif" font-size="14" fill="#3a4d78" text-anchor="middle" dominant-baseline="middle" transform="rotate(0.0 275.0 680.0)">&#8250;</text>
<text x="545.0" y="680.0" font-family="Segoe UI, sans-serif" font-size="14" fill="#3a4d78" text-anchor="middle" dominant-baseline="middle" transform="rotate(0.0 545.0 680.0)">&#8250;</text>

    <circle r="4.5" fill="#bff3ff">
      <animateMotion dur="13.0s" repeatCount="indefinite" path="M140,300 L410,300 L680,300 L680,490 L410,490 L140,490 L140,680 L410,680 L680,680"/>
    </circle>
    <circle r="10" fill="url(#nodeGlow)">
      <animateMotion dur="13.0s" repeatCount="indefinite" path="M140,300 L410,300 L680,300 L680,490 L410,490 L140,490 L140,680 L410,680 L680,680"/>
    </circle>

    <g transform="translate(140,300)">
  <circle r="38" fill="url(#nodeGlow)"><animate attributeName="opacity" keyTimes="0.0000;0.0010;0.0310;1.0000" values="0.35;1;0.35;0.35" dur="13.0s" repeatCount="indefinite"/></circle>
  <g><animateTransform attributeName="transform" type="scale" keyTimes="0.0000;0.0010;0.0310;1.0000" values="1;1.28;1;1" dur="13.0s" repeatCount="indefinite" additive="sum"/>
    <circle r="30" fill="#0d1424" stroke="#39e5ff" stroke-width="1.6"/>
  </g>
  <g>
  <rect x="-8" y="-7" width="12" height="15" rx="1.5" fill="#0d1424" stroke="#8f7cff" stroke-width="1.5"/>
  <rect x="-4" y="-10" width="12" height="15" rx="1.5" fill="#0d1424" stroke="#39e5ff" stroke-width="1.6"/>
  <line x1="-1" y1="-5" x2="6" y2="-5" stroke="#39e5ff" stroke-width="1.1"/>
  <line x1="-1" y1="-1" x2="6" y2="-1" stroke="#39e5ff" stroke-width="1.1"/>
  <line x1="-1" y1="3" x2="4" y2="3" stroke="#39e5ff" stroke-width="1.1"/>
</g>
  <text x="0" y="52" font-family="SFMono-Regular, Consolas, Menlo, monospace" font-size="10.5" letter-spacing="1" fill="#93a4c9" text-anchor="middle">INGESTION</text>
</g>
<g transform="translate(410,300)">
  <circle r="38" fill="url(#nodeGlow)"><animate attributeName="opacity" keyTimes="0.0000;0.1050;0.1350;0.1650;1.0000" values="0.35;0.35;1;0.35;0.35" dur="13.0s" repeatCount="indefinite"/></circle>
  <g><animateTransform attributeName="transform" type="scale" keyTimes="0.0000;0.1050;0.1350;0.1650;1.0000" values="1;1;1.28;1;1" dur="13.0s" repeatCount="indefinite" additive="sum"/>
    <circle r="30" fill="#0d1424" stroke="#39e5ff" stroke-width="1.6"/>
  </g>
  <g>
  <path d="M-9,-6 L-9,6 A9,3.2 0 0 0 9,6 L9,-6" fill="none" stroke="#39e5ff" stroke-width="1.6"/>
  <ellipse cx="0" cy="-6" rx="9" ry="3.2" fill="#0d1424" stroke="#39e5ff" stroke-width="1.6"/>
  <circle cx="-3" cy="-6" r="1.3" fill="#8f7cff"/>
  <circle cx="2" cy="-4.5" r="1.3" fill="#8f7cff"/>
  <circle cx="4" cy="-7" r="1.3" fill="#8f7cff"/>
  <line x1="-3" y1="-6" x2="2" y2="-4.5" stroke="#8f7cff" stroke-width="0.8"/>
  <line x1="2" y1="-4.5" x2="4" y2="-7" stroke="#8f7cff" stroke-width="0.8"/>
</g>
  <text x="0" y="52" font-family="SFMono-Regular, Consolas, Menlo, monospace" font-size="10.5" letter-spacing="1" fill="#93a4c9" text-anchor="middle">VECTOR STORE</text>
</g>
<g transform="translate(680,300)">
  <circle r="38" fill="url(#nodeGlow)"><animate attributeName="opacity" keyTimes="0.0000;0.2400;0.2700;0.3000;1.0000" values="0.35;0.35;1;0.35;0.35" dur="13.0s" repeatCount="indefinite"/></circle>
  <g><animateTransform attributeName="transform" type="scale" keyTimes="0.0000;0.2400;0.2700;0.3000;1.0000" values="1;1;1.28;1;1" dur="13.0s" repeatCount="indefinite" additive="sum"/>
    <circle r="30" fill="#0d1424" stroke="#39e5ff" stroke-width="1.6"/>
  </g>
  <g>
  <circle cx="-1.5" cy="-1.5" r="6.5" fill="none" stroke="#39e5ff" stroke-width="1.7"/>
  <line x1="3.5" y1="3.5" x2="9" y2="9" stroke="#39e5ff" stroke-width="1.9" stroke-linecap="round"/>
  <circle cx="-1.5" cy="-1.5" r="2" fill="#8f7cff" opacity="0.85"/>
</g>
  <text x="0" y="52" font-family="SFMono-Regular, Consolas, Menlo, monospace" font-size="10.5" letter-spacing="1" fill="#93a4c9" text-anchor="middle">RAG RETRIEVAL</text>
</g>
<g transform="translate(680,490)">
  <circle r="38" fill="url(#nodeGlow)"><animate attributeName="opacity" keyTimes="0.0000;0.3350;0.3650;0.3950;1.0000" values="0.35;0.35;1;0.35;0.35" dur="13.0s" repeatCount="indefinite"/></circle>
  <g><animateTransform attributeName="transform" type="scale" keyTimes="0.0000;0.3350;0.3650;0.3950;1.0000" values="1;1;1.28;1;1" dur="13.0s" repeatCount="indefinite" additive="sum"/>
    <circle r="30" fill="#0d1424" stroke="#39e5ff" stroke-width="1.6"/>
  </g>
  <g>
  <path d="M-9,-8 h18 a2,2 0 0 1 2,2 v8 a2,2 0 0 1 -2,2 h-11 l-5,4 v-4 h-2 a2,2 0 0 1 -2,-2 v-8 a2,2 0 0 1 2,-2 z" fill="#0d1424" stroke="#39e5ff" stroke-width="1.4"/>
  <circle cx="-4" cy="-2" r="1.2" fill="#8f7cff"/>
  <circle cx="0" cy="-2" r="1.2" fill="#8f7cff"/>
  <circle cx="4" cy="-2" r="1.2" fill="#8f7cff"/>
</g>
  <text x="0" y="52" font-family="SFMono-Regular, Consolas, Menlo, monospace" font-size="10.5" letter-spacing="1" fill="#93a4c9" text-anchor="middle">LLM REASONING</text>
</g>
<g transform="translate(410,490)">
  <circle r="68" fill="url(#nodeGlow)"><animate attributeName="opacity" keyTimes="0.0000;0.4700;0.5000;0.5300;1.0000" values="0.35;0.35;1;0.35;0.35" dur="13.0s" repeatCount="indefinite"/></circle>
  <g><animateTransform attributeName="transform" type="scale" keyTimes="0.0000;0.4700;0.5000;0.5300;1.0000" values="1;1;1.28;1;1" dur="13.0s" repeatCount="indefinite" additive="sum"/>
    <circle r="54" fill="#0d1424" stroke="#39e5ff" stroke-width="1.6"/>
  </g>
  <text x="0" y="-2" font-family="Segoe UI, sans-serif" font-size="16" font-weight="700" fill="#eaf3ff" text-anchor="middle">AI</text>
  <text x="0" y="13" font-family="Segoe UI, sans-serif" font-size="9" letter-spacing="1" fill="#9db0d6" text-anchor="middle">AGENT</text>
  <circle r="64" fill="none" stroke="#8f7cff" stroke-width="1" stroke-dasharray="2 6" opacity="0.55"><animateTransform attributeName="transform" type="rotate" from="0" to="360" dur="16s" repeatCount="indefinite"/></circle>
  <text x="0" y="76" font-family="SFMono-Regular, Consolas, Menlo, monospace" font-size="10.5" letter-spacing="1" fill="#93a4c9" text-anchor="middle">ORCHESTRATION</text>
</g>
<g transform="translate(140,490)">
  <circle r="38" fill="url(#nodeGlow)"><animate attributeName="opacity" keyTimes="0.0000;0.6050;0.6350;0.6650;1.0000" values="0.35;0.35;1;0.35;0.35" dur="13.0s" repeatCount="indefinite"/></circle>
  <g><animateTransform attributeName="transform" type="scale" keyTimes="0.0000;0.6050;0.6350;0.6650;1.0000" values="1;1;1.28;1;1" dur="13.0s" repeatCount="indefinite" additive="sum"/>
    <circle r="30" fill="#0d1424" stroke="#39e5ff" stroke-width="1.6"/>
  </g>
  <g>
  <rect x="-9" y="1" width="4" height="6" fill="#39e5ff"/>
  <rect x="-2" y="-3" width="4" height="10" fill="#8f7cff"/>
  <rect x="5" y="-7" width="4" height="14" fill="#39e5ff"/>
</g>
  <text x="0" y="52" font-family="SFMono-Regular, Consolas, Menlo, monospace" font-size="10.5" letter-spacing="1" fill="#93a4c9" text-anchor="middle">EVALUATION</text>
</g>
<g transform="translate(140,680)">
  <circle r="38" fill="url(#nodeGlow)"><animate attributeName="opacity" keyTimes="0.0000;0.7000;0.7300;0.7600;1.0000" values="0.35;0.35;1;0.35;0.35" dur="13.0s" repeatCount="indefinite"/></circle>
  <g><animateTransform attributeName="transform" type="scale" keyTimes="0.0000;0.7000;0.7300;0.7600;1.0000" values="1;1;1.28;1;1" dur="13.0s" repeatCount="indefinite" additive="sum"/>
    <circle r="30" fill="#0d1424" stroke="#39e5ff" stroke-width="1.6"/>
  </g>
  <g>
  <polygon points="0,-10 9,-5 9,6 0,11 -9,6 -9,-5" fill="#0d1424" stroke="#39e5ff" stroke-width="1.6"/>
  <polyline points="-9,-5 0,0 9,-5" fill="none" stroke="#39e5ff" stroke-width="1.3"/>
  <line x1="0" y1="0" x2="0" y2="11" stroke="#39e5ff" stroke-width="1.3"/>
</g>
  <text x="0" y="52" font-family="SFMono-Regular, Consolas, Menlo, monospace" font-size="10.5" letter-spacing="1" fill="#93a4c9" text-anchor="middle">DEPLOYMENT</text>
</g>
<g transform="translate(410,680)">
  <circle r="38" fill="url(#nodeGlow)"><animate attributeName="opacity" keyTimes="0.0000;0.8350;0.8650;0.8950;1.0000" values="0.35;0.35;1;0.35;0.35" dur="13.0s" repeatCount="indefinite"/></circle>
  <g><animateTransform attributeName="transform" type="scale" keyTimes="0.0000;0.8350;0.8650;0.8950;1.0000" values="1;1;1.28;1;1" dur="13.0s" repeatCount="indefinite" additive="sum"/>
    <circle r="30" fill="#0d1424" stroke="#39e5ff" stroke-width="1.6"/>
  </g>
  <g>
  <text x="0" y="5" font-family="SFMono-Regular, Consolas, Menlo, monospace" font-size="15" font-weight="700" fill="#39e5ff" text-anchor="middle">&lt;/&gt;</text>
</g>
  <text x="0" y="52" font-family="SFMono-Regular, Consolas, Menlo, monospace" font-size="10.5" letter-spacing="1" fill="#93a4c9" text-anchor="middle">API</text>
</g>
<g transform="translate(680,680)">
  <circle r="38" fill="url(#nodeGlow)"><animate attributeName="opacity" keyTimes="0.0000;0.9690;0.9990;1.0000" values="0.35;0.35;1;0.35" dur="13.0s" repeatCount="indefinite"/></circle>
  <g><animateTransform attributeName="transform" type="scale" keyTimes="0.0000;0.9690;0.9990;1.0000" values="1;1;1.28;1" dur="13.0s" repeatCount="indefinite" additive="sum"/>
    <circle r="30" fill="#0d1424" stroke="#39e5ff" stroke-width="1.6"/>
  </g>
  <g>
  <polyline points="-9,5 -3,-1 2,2 9,-9" fill="none" stroke="#39e5ff" stroke-width="1.8" stroke-linecap="round" stroke-linejoin="round"/>
  <circle cx="9" cy="-9" r="2.1" fill="#8f7cff"/>
</g>
  <text x="0" y="52" font-family="SFMono-Regular, Consolas, Menlo, monospace" font-size="10.5" letter-spacing="1" fill="#93a4c9" text-anchor="middle">IMPACT</text>
</g>

    <!-- ============ MARQUEE ============ -->
    <line x1="30" y1="792" x2="790" y2="792" stroke="#233255"/>
    <g clip-path="url(#marqueeClip)">
      <g transform="translate(0,802)">
        <animateTransform attributeName="transform" type="translate" from="0 802" to="-974 802" dur="20s" repeatCount="indefinite"/>
        <g id="pillrow">
          <rect x="30" y="0" width="76" height="24" rx="12" fill="url(#pillGrad)" stroke="#2a3a5c"/><text x="68.0" y="16" text-anchor="middle" font-family="SFMono-Regular, Consolas, Menlo, monospace" font-size="12.5" fill="#c7d3ee">Python</text>
<rect x="122" y="0" width="100" height="24" rx="12" fill="url(#pillGrad)" stroke="#2a3a5c"/><text x="172.0" y="16" text-anchor="middle" font-family="SFMono-Regular, Consolas, Menlo, monospace" font-size="12.5" fill="#c7d3ee">LangChain</text>
<rect x="238" y="0" width="104" height="24" rx="12" fill="url(#pillGrad)" stroke="#2a3a5c"/><text x="290.0" y="16" text-anchor="middle" font-family="SFMono-Regular, Consolas, Menlo, monospace" font-size="12.5" fill="#c7d3ee">LlamaIndex</text>
<rect x="358" y="0" width="98" height="24" rx="12" fill="url(#pillGrad)" stroke="#2a3a5c"/><text x="407.0" y="16" text-anchor="middle" font-family="SFMono-Regular, Consolas, Menlo, monospace" font-size="12.5" fill="#c7d3ee">OpenAI API</text>
<rect x="472" y="0" width="92" height="24" rx="12" fill="url(#pillGrad)" stroke="#2a3a5c"/><text x="518.0" y="16" text-anchor="middle" font-family="SFMono-Regular, Consolas, Menlo, monospace" font-size="12.5" fill="#c7d3ee">Vector DB</text>
<rect x="580" y="0" width="58" height="24" rx="12" fill="url(#pillGrad)" stroke="#2a3a5c"/><text x="609.0" y="16" text-anchor="middle" font-family="SFMono-Regular, Consolas, Menlo, monospace" font-size="12.5" fill="#c7d3ee">RAG</text>
<rect x="654" y="0" width="102" height="24" rx="12" fill="url(#pillGrad)" stroke="#2a3a5c"/><text x="705.0" y="16" text-anchor="middle" font-family="SFMono-Regular, Consolas, Menlo, monospace" font-size="12.5" fill="#c7d3ee">Agentic AI</text>
<rect x="772" y="0" width="100" height="24" rx="12" fill="url(#pillGrad)" stroke="#2a3a5c"/><text x="822.0" y="16" text-anchor="middle" font-family="SFMono-Regular, Consolas, Menlo, monospace" font-size="12.5" fill="#c7d3ee">Prompt Eng</text>
<rect x="888" y="0" width="76" height="24" rx="12" fill="url(#pillGrad)" stroke="#2a3a5c"/><text x="926.0" y="16" text-anchor="middle" font-family="SFMono-Regular, Consolas, Menlo, monospace" font-size="12.5" fill="#c7d3ee">Docker</text>
        </g>
        <use href="#pillrow" x="974" y="0"/>
      </g>
    </g>
  </g>
</svg>
